# xmcd CD database file
#
# Track frame offsets:
#	150
#	11211
#	26892
#	129994
#	143383
#	153323
#	166894
#	219692
#	231400
#	259210
#
# Disc length: 3588 seconds
#
# Revision: 0
# Processed by: cddbd v1.5.1PL0 Copyright (c) Steve Scherf et al.
# Submitted via: CDex 1.51
#
DISCID=870e020a
DTITLE=Hayseed Dixie - A Hillbilly tribute to AC/DC
DYEAR=2001
DGENRE=Country
TTITLE0=Highway to hell
TTITLE1=You shook me all nigth long
TTITLE2=Dirty deeds done dirt cheap
TTITLE3=Hell's bells
TTITLE4=Money talks
TTITLE5=Let's get it up
TTITLE6=Have a drink on me
TTITLE7=T.N.T.
TTITLE8=Back in black
TTITLE9=Big balls
EXTD=YEAR: 2001
EXTT0=
EXTT1=
EXTT2=
EXTT3=
EXTT4=
EXTT5=
EXTT6=
EXTT7=
EXTT8=
EXTT9=
PLAYORDER=
